<svg xmlns="http://www.w3.org/2000/svg" version="1.0" width="320" height="320" viewBox="0 0 64.000000 64.000000">
 <g transform="matrix(1,0,0,-1,0,64)">
 v2.0 15 November 2016 - Peter Lowden - peter@lowden.nz
  <path d="m 32,8.4 0.4,0.7 0.2,0.8 5.2,0 0,0.2 -5.1,0.1 0.1,0.5 0.7,0 0.6,0.2 0.3,0.4 0.2,0.7 0.5,3.9 0.1,3.4 11.1,0 15.6,0.7 0.6,0.4 0.3,0.8 0,5.1 -16.8,2.3 -10.8,0 -2.1,16.1 8.3,1.1 0.5,0.4 0.1,1.5 0,1.2 -0.1,1.3 -0.5,0.3 -8.1,1.4 -0.8,-2.1 -0.2,1.7 -0.1,3.2 -0.2,0.9 -0.2,-0.9 -0.1,-3.2 -0.2,-1.7 -0.8,2.1 -8.1,-1.4 -0.5,-0.3 -0.1,-1.3 0,-1.2 0.1,-1.5 0.5,-0.4 8.3,-1.1 -2.1,-16.1 -10.8,0 -16.8,-2.3 0,-5.1 0.3,-0.8 0.6,-0.3 15.6,-0.8 11.1,0 0.1,-3.4 0.5,-3.9 0.2,-0.7 0.3,-0.4 0.6,-0.2 0.7,0 0.1,-0.5 -5.2,-0.1 0,-0.2 5.3,0 0.2,-0.8 z" fill="#ccffff" stroke="#0014aa" stroke-width="0.1"/>
 </g>
</svg>
