<?xml version="1.0" encoding="utf-8"?>
<svg version="1.0" width="320" height="320" viewBox="0 0 64.000000 64.000000" xmlns="http://www.w3.org/2000/svg">
  <defs/>
  <g transform="matrix(1,0,0,-1,0,64)">
    <path d="M 32 8.4 L 32.4 9.1 L 32.6 9.9 L 32.7 10.2 L 32.8 10.7 L 33.5 10.7 L 34.1 10.9 L 34.4 11.3 L 34.6 12 L 35.1 15.9 L 35.2 19.3 L 46.3 19.3 L 46 28.6 L 35.2 28.6 L 39.457 41.522 L 25.915 41.305 L 28.8 28.6 L 18 28.6 L 1.2 26.3 L 1.2 21.2 L 1.5 20.4 L 2.1 20.1 L 17.7 19.3 L 28.8 19.3 L 28.9 15.9 L 29.4 12 L 29.6 11.3 L 29.9 10.9 L 30.5 10.7 L 31.2 10.7 L 31.3 10.2 L 31.4 9.9 L 31.6 9.1 L 32 8.4 Z" fill="#ccffff" stroke="#0014aa" stroke-width="0.1"/>
  </g>
</svg>